<?xml version="1.0" standalone="no"?>
<!DOCTYPE svg PUBLIC "-//W3C//DTD SVG 1.1//EN" "http://www.w3.org/Graphics/SVG/1.1/DTD/svg11.dtd" >
<svg xmlns="http://www.w3.org/2000/svg" xmlns:xlink="http://www.w3.org/1999/xlink" version="1.1">
<metadata></metadata>
<defs>
<font id="uniformblack" horiz-adv-x="1269" >
<font-face units-per-em="2048" ascent="1536" descent="-512" />
<missing-glyph horiz-adv-x="598" />
<glyph unicode="&#x2e;&#x2e;&#x2e;" horiz-adv-x="2170" d="M102 205q0 94 66 159.5t160 65.5t159.5 -65.5t65.5 -159.5t-65.5 -159.5t-159.5 -65.5t-160 65.5t-66 159.5zM860 205q0 94 65.5 159.5t159.5 65.5t160 -65.5t66 -159.5t-66 -159.5t-160 -65.5t-159.5 65.5t-65.5 159.5zM1618 205q0 94 65.5 159.5t159.5 65.5 t159.5 -65.5t65.5 -159.5t-65.5 -159.5t-159.5 -65.5t-159.5 65.5t-65.5 159.5z" />
<glyph horiz-adv-x="0" />
<glyph horiz-adv-x="682" />
<glyph unicode=" "  horiz-adv-x="598" />
<glyph unicode="&#x09;" horiz-adv-x="598" />
<glyph unicode="&#xa0;" horiz-adv-x="598" />
<glyph unicode="!" horiz-adv-x="696" d="M123 205q0 94 65.5 159.5t159.5 65.5t159.5 -65.5t65.5 -159.5t-65.5 -159.5t-159.5 -65.5t-159.5 65.5t-65.5 159.5zM123 1434h450l-81 -922h-287z" />
<glyph unicode="&#x22;" horiz-adv-x="921" d="M102 758v676h287v-676h-287zM532 758v676h287v-676h-287z" />
<glyph unicode="#" d="M82 287v215h203l45 225h-166v215h209l57 287h236l-58 -287h185l57 287h235l-57 -287h160v-215h-203l-45 -225h166v-215h-209l-57 -287h-236l58 287h-185l-57 -287h-236l58 287h-160zM520 502h185l45 225h-185z" />
<glyph unicode="$" horiz-adv-x="1177" d="M61 274l269 191q5 -7 13 -18t36 -40t57 -51.5t73 -40.5t87 -18q51 0 82 25t31 65q0 49 -56.5 97.5t-203.5 121.5q-312 158 -312 434q0 154 101.5 260t267.5 134v204h205v-202q56 -8 108 -25.5t89.5 -39.5t70 -46.5t53.5 -47.5t36 -41.5t22 -29.5l6 -12l-267 -190 q-3 5 -9.5 14t-27.5 32t-44.5 40.5t-59 32t-72.5 14.5q-45 0 -72.5 -23t-27.5 -59q0 -48 43 -85.5t162 -99.5q75 -39 134 -79.5t115 -96.5t86.5 -127.5t30.5 -152.5q0 -162 -103 -272.5t-273 -141.5v-205h-205v199q-89 10 -168 42.5t-127.5 71.5t-84 77t-50.5 63z" />
<glyph unicode="%" horiz-adv-x="1597" d="M82 926q0 140 96.5 231.5t237.5 91.5t235 -89.5t94 -229.5t-96 -232t-237 -92t-235.5 90t-94.5 230zM260 0l840 1229h237l-839 -1229h-238zM311 928q0 -46 29.5 -76.5t73.5 -30.5t73 30.5t29 76.5t-29 76t-73 30t-73.5 -30t-29.5 -76zM852 299q0 140 96.5 232t237.5 92 t235.5 -90t94.5 -230t-96.5 -231.5t-237.5 -91.5t-235.5 89.5t-94.5 229.5zM1081 301q0 -46 29.5 -76t73.5 -30t73 30t29 76t-29 76.5t-73 30.5t-73.5 -30.5t-29.5 -76.5z" />
<glyph unicode="&#x26;" horiz-adv-x="1536" d="M61 395q0 125 64.5 226t214.5 192q-125 152 -125 293q0 145 119.5 246.5t316.5 101.5q103 0 186 -29.5t133.5 -79t77.5 -110t27 -125.5q0 -208 -254 -365l135 -145l191 219h369l-359 -436l359 -383h-400l-155 160q-104 -102 -202 -141t-231 -39q-123 0 -229.5 53 t-172 149t-65.5 213zM410 436q0 -65 44.5 -107t114.5 -42q96 0 187 88l-228 237q-118 -83 -118 -176zM553 1094q0 -34 20 -67t70 -89q125 64 125 147q0 43 -29 73t-80 30q-47 0 -76.5 -28.5t-29.5 -65.5z" />
<glyph unicode="'" horiz-adv-x="491" d="M102 758v676h287v-676h-287z" />
<glyph unicode="(" horiz-adv-x="890" d="M102 711q0 111 20 214t53.5 182.5t77 151t92 124t97 96.5t92 72.5t77 48.5t53.5 29l20 9l166 -256q-8 -4 -22 -12t-54.5 -36.5t-77 -63t-81.5 -92t-77.5 -121t-54.5 -153.5t-22 -187t21.5 -186.5t56 -154.5t76 -121t82.5 -92.5t75.5 -62.5t55.5 -38l22 -11l-166 -256 q-12 5 -33 14.5t-81.5 46.5t-115.5 81.5t-122 122.5t-115.5 166.5t-81.5 216t-33 268.5z" />
<glyph unicode=")" horiz-adv-x="890" d="M41 51q8 4 22 12t54.5 37t77 63t81.5 91.5t77.5 121.5t54.5 154t22 187t-21.5 186.5t-56 154.5t-76 120.5t-82.5 92t-75.5 62.5t-56.5 37l-21 12l166 256q7 -3 20 -8.5t53 -27t78.5 -47.5t90.5 -70.5t97 -95t91 -122t78 -150t52.5 -181t20.5 -213.5t-20 -214 t-53.5 -182.5t-77 -151t-92 -124.5t-96.5 -97t-91.5 -72.5t-77 -48.5t-53.5 -29l-20 -9z" />
<glyph unicode="*" horiz-adv-x="1044" d="M82 1018l82 252l252 -113l-27 277h266l-28 -277l254 113l82 -252l-273 -60l187 -206l-215 -156l-140 240l-139 -240l-215 156l184 206z" />
<glyph unicode="+" d="M102 584v286h385v400h295v-400h385v-286h-385v-400h-295v400h-385z" />
<glyph unicode="," horiz-adv-x="614" d="M82 -266l61 676h389l-163 -676h-287z" />
<glyph unicode="-" horiz-adv-x="860" d="M102 563v328h656v-328h-656z" />
<glyph unicode="." horiz-adv-x="655" d="M102 205q0 94 66 159.5t160 65.5t159.5 -65.5t65.5 -159.5t-65.5 -159.5t-159.5 -65.5t-160 65.5t-66 159.5z" />
<glyph unicode="/" horiz-adv-x="1146" d="M0 -164l840 1761h307l-840 -1761h-307z" />
<glyph unicode="0" d="M102 506v409q0 167 72.5 291t193.5 186t273 62q234 0 380 -138t146 -388v-410q0 -126 -41.5 -228.5t-114.5 -170t-171 -103.5t-211 -36q-234 0 -380.5 138t-146.5 388zM471 481q0 -72 46 -118t118 -46t118 46t46 118v471q0 72 -46 118t-118 46t-118 -46t-46 -118v-471z " />
<glyph unicode="1" horiz-adv-x="1044" d="M20 1065l533 369h307v-1434h-368v1008l-297 -189z" />
<glyph unicode="2" horiz-adv-x="1167" d="M61 1137q2 7 7.5 18t25.5 44t45.5 63t69.5 66.5t95.5 63t126.5 44.5t159 18q211 0 348 -121.5t137 -302.5q0 -147 -61 -257t-205 -241l-236 -215h492v-317h-973v287l471 450q82 78 113 129.5t31 116.5q0 61 -42 102t-112 41q-41 0 -79 -17t-63.5 -41t-45 -47.5 t-28.5 -40.5l-9 -17z" />
<glyph unicode="3" horiz-adv-x="1157" d="M20 276l277 164q2 -6 7 -15.5t24.5 -34t42.5 -43.5t64 -34.5t87 -15.5q79 0 126.5 43t47.5 104q0 67 -50.5 108.5t-153.5 41.5h-144v276h144q81 0 122 35t41 99q0 61 -41 97t-102 36q-39 0 -71 -11.5t-50.5 -28.5t-31 -33.5t-17.5 -27.5l-4 -12l-266 154q2 6 7 16 t23.5 38.5t41.5 54.5t62.5 58t85.5 55t112 38.5t139 15.5q130 0 239 -47.5t175.5 -138.5t66.5 -207q0 -98 -48.5 -179.5t-133.5 -136.5q105 -52 164 -140t59 -204q0 -126 -69.5 -222.5t-191 -147.5t-274.5 -51q-79 0 -150 16.5t-121 42.5t-92 57.5t-68.5 63t-45 57.5 t-25.5 43z" />
<glyph unicode="4" d="M51 287v297l604 850h359v-861h205v-286h-205v-287h-348v287h-615zM354 573h312v437z" />
<glyph unicode="5" horiz-adv-x="1228" d="M92 266l277 195q3 -6 8 -15.5t24.5 -34.5t42.5 -44t62 -34.5t82 -15.5q84 0 132 48.5t48 126.5q0 62 -42.5 107.5t-115.5 45.5q-29 0 -53.5 -8t-39 -18.5t-25.5 -23t-15.5 -20.5t-5.5 -12h-317v871h911v-318h-584v-211q88 58 201 58q136 0 241.5 -63.5t159.5 -167.5 t54 -230q0 -230 -150.5 -376t-392.5 -146q-73 0 -140 16t-116 41t-91.5 55.5t-70 61t-47.5 55.5t-29 41z" />
<glyph unicode="6" d="M92 496q0 206 135 413l346 525h410l-326 -478q35 7 66 7q122 0 225.5 -56t166.5 -158.5t63 -230.5q0 -158 -75 -282t-199.5 -190t-274.5 -66q-143 0 -265.5 64.5t-197 184t-74.5 267.5zM461 502q0 -79 47.5 -132t126.5 -53t126.5 53t47.5 132t-47 131.5t-127 52.5 t-127 -52.5t-47 -131.5z" />
<glyph unicode="7" horiz-adv-x="1105" d="M61 1106v328h983v-256l-532 -1178h-399l518 1106h-570z" />
<glyph unicode="8" d="M92 424q0 96 50.5 184t138.5 150q-138 116 -138 280q0 182 141.5 299t356.5 117t350 -111t135 -292q0 -163 -139 -283q89 -61 140 -147.5t51 -184.5q0 -197 -156 -326.5t-393 -129.5q-238 0 -387.5 123.5t-149.5 320.5zM461 461q0 -77 48.5 -125.5t125.5 -48.5 t125.5 48.5t48.5 125.5t-48.5 125.5t-125.5 48.5t-125.5 -48.5t-48.5 -125.5zM502 1014q0 -60 36.5 -96.5t96.5 -36.5t96.5 36.5t36.5 96.5t-36.5 96.5t-96.5 36.5t-96.5 -36.5t-36.5 -96.5z" />
<glyph unicode="9" d="M92 915q0 119 44 220.5t118.5 171t174.5 108.5t212 39q143 0 265.5 -64.5t197 -184t74.5 -267.5q0 -205 -136 -414l-346 -524h-409l325 477q-30 -6 -65 -6q-187 0 -321 126t-134 318zM461 932q0 -79 47 -131.5t127 -52.5t127 52.5t47 131.5t-47 131.5t-127 52.5 t-127 -52.5t-47 -131.5z" />
<glyph unicode=":" horiz-adv-x="655" d="M102 205q0 94 66 159.5t160 65.5t159.5 -65.5t65.5 -159.5t-65.5 -159.5t-159.5 -65.5t-160 65.5t-66 159.5zM102 860q0 94 66 159.5t160 65.5t159.5 -65.5t65.5 -159.5t-65.5 -159.5t-159.5 -65.5t-160 65.5t-66 159.5z" />
<glyph unicode=";" horiz-adv-x="655" d="M82 -266l61 676h389l-163 -676h-287zM102 860q0 94 66 159.5t160 65.5t159.5 -65.5t65.5 -159.5t-65.5 -159.5t-159.5 -65.5t-160 65.5t-66 159.5z" />
<glyph unicode="&#x3c;" d="M102 573v308l1065 440v-317l-743 -273l743 -270v-328z" />
<glyph unicode="=" d="M102 338v287h1065v-287h-1065zM102 788v287h1065v-287h-1065z" />
<glyph unicode="&#x3e;" d="M102 133v318l742 270l-742 272v328l1065 -440v-308z" />
<glyph unicode="?" horiz-adv-x="1105" d="M61 1137q2 7 6.5 18t22.5 44t40.5 63t64 66.5t90 63t120.5 44.5t154 18q196 0 330.5 -118t134.5 -285q0 -85 -28 -153.5t-70.5 -115t-87 -86t-85.5 -87t-57 -97.5h-327q0 63 20.5 118t50.5 91.5t66 72.5t66 63.5t50.5 62t20.5 69.5q0 46 -32 79.5t-81 33.5 q-39 0 -72.5 -15t-52.5 -36t-32 -42t-18 -36l-5 -15zM307 205q0 94 65.5 159.5t159.5 65.5t160 -65.5t66 -159.5t-66 -159.5t-160 -65.5t-159.5 65.5t-65.5 159.5z" />
<glyph unicode="@" horiz-adv-x="1998" d="M82 565q0 183 71 347.5t193 283.5t293.5 188.5t364.5 69.5q194 0 364 -68t290.5 -185.5t189.5 -280.5t69 -347q0 -126 -36.5 -242.5t-101 -205t-159.5 -141t-205 -52.5q-129 0 -209.5 80t-79.5 211q-92 -69 -227 -69q-123 0 -217.5 61.5t-139 169t-26.5 238.5 q24 179 152 283t297 104q145 0 231 -86l27 69h221l37 -41l-97 -690q-6 -47 15.5 -74.5t64.5 -27.5q76 0 145.5 113.5t69.5 277.5q0 314 -187 498t-493 184q-143 0 -270 -51.5t-216.5 -140t-141.5 -211.5t-52 -261q0 -136 52 -256.5t141.5 -208t216.5 -138t270 -50.5 q36 0 72.5 4t54.5 8l19 4l63 -194q-92 -33 -213 -33q-194 0 -364 66.5t-290 181t-189.5 274t-69.5 338.5zM823 596q-9 -68 32.5 -117t109.5 -49q66 0 108 36t51 101q9 68 -32 117t-109 49q-67 0 -109 -36.5t-51 -100.5z" />
<glyph unicode="A" horiz-adv-x="1515" d="M0 0l563 1434h389l564 -1434h-431l-84 246h-507l-84 -246h-410zM598 553h297l-147 432z" />
<glyph unicode="B" horiz-adv-x="1413" d="M143 0v1434h672q211 0 338 -103t127 -270q0 -99 -48.5 -179.5t-137.5 -133.5q117 -44 182 -135.5t65 -211.5q0 -172 -136.5 -286.5t-350.5 -114.5h-711zM532 297h246q84 0 129 42.5t45 106.5t-45 106t-129 42h-246v-297zM532 870h195q78 0 121 38.5t43 95.5t-43 95 t-121 38h-195v-267z" />
<glyph unicode="C" horiz-adv-x="1460" d="M82 711q0 204 100 374.5t276 269.5t388 99q81 0 155.5 -13t129.5 -34.5t102.5 -47t79 -51t54 -47t32.5 -34.5l10 -13l-289 -249q-3 5 -10 14t-31.5 31.5t-54 40t-79 31.5t-105.5 14q-160 0 -264.5 -108.5t-104.5 -270.5t104.5 -270.5t264.5 -108.5q59 0 112 16t86.5 38.5 t58.5 45t35 38.5l11 16l276 -246q-4 -6 -11 -15.5t-33 -37t-56.5 -52.5t-81.5 -56t-107 -53t-134 -37t-162 -15q-159 0 -299 56.5t-239.5 153.5t-156.5 232.5t-57 288.5z" />
<glyph unicode="D" horiz-adv-x="1556" d="M143 0v1434h539q171 0 319 -54t251.5 -148t163 -226t59.5 -283t-61 -285t-167 -230t-256 -152t-321 -56h-527zM532 338h154q175 0 287 106.5t112 272.5t-112 272.5t-287 106.5h-154v-758z" />
<glyph unicode="E" horiz-adv-x="1331" d="M143 0v1434h1086v-338h-697v-205h594v-318h-594v-235h717v-338h-1106z" />
<glyph unicode="F" horiz-adv-x="1249" d="M143 0v1434h1065v-338h-676v-267h574v-327h-574v-502h-389z" />
<glyph unicode="G" horiz-adv-x="1628" d="M82 711q0 204 100 374.5t276 269.5t388 99q81 0 155.5 -12.5t129.5 -33t102.5 -44.5t79 -48.5t54 -45t32.5 -32.5l10 -13l-272 -275q-4 6 -11.5 16t-34.5 35t-58.5 44t-83.5 35t-109 16q-161 0 -265 -108.5t-104 -274.5t104 -275.5t265 -109.5q121 0 200 53t105 151h-326 v277h719q8 -56 8 -107q0 -201 -86 -364.5t-249.5 -260.5t-376.5 -97q-159 0 -299 56.5t-239.5 153.5t-156.5 232.5t-57 288.5z" />
<glyph unicode="H" horiz-adv-x="1576" d="M143 0v1434h389v-523h512v523h390v-1434h-390v563h-512v-563h-389z" />
<glyph unicode="I" horiz-adv-x="706" d="M154 0v1434h399v-1434h-399z" />
<glyph unicode="J" horiz-adv-x="1044" d="M20 47l103 342q8 -5 23.5 -11.5t66 -18t104.5 -11.5q94 0 149.5 64.5t55.5 171.5v850h400v-875q0 -263 -158.5 -421t-411.5 -158q-61 0 -118 7t-94 16.5t-65.5 19.5t-41.5 17z" />
<glyph unicode="K" horiz-adv-x="1484" d="M143 0v1434h389v-641l472 641h460l-553 -676l594 -758h-461l-512 682v-682h-389z" />
<glyph unicode="L" horiz-adv-x="1208" d="M143 0v1434h389v-1086h656v-348h-1045z" />
<glyph unicode="M" horiz-adv-x="1822" d="M143 0v1434h400l379 -750l378 750h379v-1434h-374v780l-291 -575h-205l-291 575v-780h-375z" />
<glyph unicode="N" horiz-adv-x="1617" d="M143 0v1434h400l553 -822v822h379v-1434h-379l-574 850v-850h-379z" />
<glyph unicode="O" horiz-adv-x="1679" d="M82 711q0 204 100 374.5t276 269.5t388 99q213 0 385 -96t269 -263t97 -372q0 -204 -100 -374.5t-275.5 -269.5t-387.5 -99q-159 0 -299 56.5t-239.5 153.5t-156.5 232.5t-57 288.5zM471 717q0 -162 104.5 -270.5t264.5 -108.5t264 108.5t104 270.5t-104 270.5 t-264 108.5t-264.5 -108.5t-104.5 -270.5z" />
<glyph unicode="P" horiz-adv-x="1413" d="M143 0v1434h641q253 0 405 -138t152 -364t-158 -369t-411 -143h-240v-420h-389zM532 737h216q92 0 148 52t56 133t-56 132.5t-148 51.5h-216v-369z" />
<glyph unicode="Q" horiz-adv-x="1679" d="M82 711q0 204 100 374.5t276 269.5t388 99q213 0 385 -96t269 -263t97 -372q0 -189 -87 -350t-238 -262l254 -357h-441l-157 232q-46 -6 -94 -6q-159 0 -299 56.5t-239.5 153.5t-156.5 232.5t-57 288.5zM471 717q0 -162 104.5 -270.5t264.5 -108.5t264 108.5t104 270.5 t-104 270.5t-264 108.5t-264.5 -108.5t-104.5 -270.5z" />
<glyph unicode="R" horiz-adv-x="1433" d="M143 0v1434h662q240 0 388 -133t148 -349q0 -149 -72.5 -262t-201.5 -174l336 -516h-451l-280 461h-140v-461h-389zM532 758h226q93 0 143.5 47.5t50.5 126.5t-50.5 126.5t-143.5 47.5h-226v-348z" />
<glyph unicode="S" horiz-adv-x="1208" d="M20 205l226 246q7 -6 19 -17t50 -38t78 -48t98 -38t113 -17q54 0 88.5 25t34.5 65q0 51 -61.5 98t-237.5 123q-326 142 -326 424q0 187 143.5 306.5t375.5 119.5q89 0 174 -20t142.5 -48.5t102 -57t65.5 -48.5l21 -20l-225 -246l-13.5 13.5t-37.5 30.5t-59 39t-75.5 30.5 t-90.5 13.5q-57 0 -90 -24t-33 -58q0 -48 45 -84.5t182 -95.5q80 -35 143 -72.5t124.5 -92.5t95.5 -128.5t34 -159.5q0 -191 -150 -318.5t-388 -127.5q-103 0 -199.5 23t-160.5 56t-113.5 66.5t-72.5 56.5z" />
<glyph unicode="T" horiz-adv-x="1208" d="M20 1096v338h1168v-338h-389v-1096h-389v1096h-390z" />
<glyph unicode="U" horiz-adv-x="1515" d="M123 588v846h395v-830q0 -123 67.5 -194.5t178.5 -71.5t178.5 71.5t67.5 194.5v830h383v-834q0 -280 -177 -450t-464 -170t-458 164t-171 444z" />
<glyph unicode="V" horiz-adv-x="1495" d="M0 1434h440l318 -926l317 926h420l-553 -1434h-389z" />
<glyph unicode="W" horiz-adv-x="2099" d="M0 1434h430l252 -840l240 840h276l240 -840l252 840h409l-481 -1434h-338l-231 786l-230 -786h-338z" />
<glyph unicode="X" horiz-adv-x="1536" d="M0 0l539 727l-519 707h472l286 -412l287 412h451l-521 -701l541 -733h-471l-309 440l-305 -440h-451z" />
<glyph unicode="Y" horiz-adv-x="1454" d="M0 1434h451l286 -549l287 549h430l-532 -922v-512h-390v512z" />
<glyph unicode="Z" horiz-adv-x="1433" d="M102 0v287l707 819h-666v328h1188v-287l-706 -819h706v-328h-1229z" />
<glyph unicode="[" horiz-adv-x="890" d="M143 -164v1761h686v-307h-327v-1147h327v-307h-686z" />
<glyph unicode="\" horiz-adv-x="1146" d="M0 1597h307l840 -1761h-307z" />
<glyph unicode="]" horiz-adv-x="890" d="M61 143h328v1147h-328v307h687v-1761h-687v307z" />
<glyph unicode="^" horiz-adv-x="1228" d="M82 655l389 779h287l389 -779h-342l-189 459l-186 -459h-348z" />
<glyph unicode="_" horiz-adv-x="1228" d="M0 -102h1229v-226h-1229v226z" />
<glyph unicode="`" horiz-adv-x="757" d="M123 1516h389l123 -349h-287z" />
<glyph unicode="a" horiz-adv-x="1177" d="M61 301q0 145 115 239.5t301 94.5q140 0 240 -53v22q0 79 -57.5 126.5t-147.5 47.5q-64 0 -125.5 -18t-90.5 -36l-30 -17l-143 235q7 6 20 15.5t58.5 34t96 43.5t130 34.5t162.5 15.5q228 0 361.5 -129.5t133.5 -355.5v-600h-286l-27 80q-115 -100 -307 -100 q-187 0 -295.5 88.5t-108.5 232.5zM430 317q0 -48 41.5 -80t106.5 -32t107 32t42 80t-42 80.5t-107 32.5t-106.5 -32.5t-41.5 -80.5z" />
<glyph unicode="b" horiz-adv-x="1320" d="M102 0v1434h369v-463q117 114 283 114q136 0 252 -71t185 -197t69 -278q0 -114 -42 -218t-112 -178.5t-165.5 -118.5t-199.5 -44q-188 0 -305 139l-26 -119h-308zM461 532q0 -90 61 -152.5t154 -62.5t154 62.5t61 152.5t-61 153t-154 63t-154 -63t-61 -153z" />
<glyph unicode="c" horiz-adv-x="1093" d="M61 526q0 115 45.5 218.5t123.5 178t187.5 118.5t233.5 44q79 0 151 -18.5t118.5 -44.5t81.5 -52t51 -44l16 -19l-254 -245l-6 9t-19.5 21t-33.5 26t-48 20.5t-63 9.5q-93 0 -154 -63t-61 -153t61 -152.5t154 -62.5q37 0 68.5 10t51 24.5t33.5 28.5t20 24l5 10l250 -240 q-6 -8 -17.5 -21t-52 -46.5t-87 -59t-121.5 -46.5t-156 -21q-251 0 -414.5 156t-163.5 390z" />
<glyph unicode="d" horiz-adv-x="1320" d="M61 526q0 114 42 218t112 178.5t165.5 118.5t199.5 44q162 0 270 -102v451h369v-1434h-308l-28 129q-124 -149 -316 -149q-136 0 -252 71t-185 197t-69 278zM430 532q0 -90 61 -152.5t154 -62.5t154 62.5t61 152.5t-61 153t-154 63t-154 -63t-61 -153z" />
<glyph unicode="e" horiz-adv-x="1228" d="M61 526q0 154 75.5 282t209 202.5t295.5 74.5q149 0 273 -69.5t194 -185t70 -250.5q0 -36 -5 -68t-11 -46l-5 -15h-719q19 -70 79.5 -112t148.5 -42q43 0 83 9.5t66.5 23t46.5 27t30 23.5l9 9l215 -215q-6 -8 -17.5 -21t-54 -46.5t-93 -59t-134.5 -46.5t-178 -21 q-251 0 -414.5 156t-163.5 390zM434 666h391q-12 63 -66.5 108t-123.5 45q-74 0 -128.5 -43t-72.5 -110z" />
<glyph unicode="f" horiz-adv-x="911" d="M41 707v297h184v71q0 177 101 278t278 101q84 0 155.5 -11t101.5 -21l30 -11l-41 -276q-55 22 -133 22q-62 0 -92.5 -29.5t-30.5 -83.5v-40h276v-297h-276v-707h-369v707h-184z" />
<glyph unicode="g" horiz-adv-x="1320" d="M61 -184l134 266q7 -5 20 -13.5t54 -29.5t83 -37t103 -29.5t118 -13.5q130 0 203.5 58.5t73.5 172.5v5q-104 -93 -272 -93q-218 0 -367.5 142t-149.5 344q0 140 65.5 253t187 178.5t276.5 65.5q176 0 299 -114l22 94h308v-793q0 -284 -161 -452t-450 -168 q-96 0 -187.5 17t-153.5 41t-111 48t-72 41zM430 584q0 -81 61.5 -138t153.5 -57t153.5 57t61.5 138t-61.5 137.5t-153.5 56.5t-153.5 -56.5t-61.5 -137.5z" />
<glyph unicode="h" horiz-adv-x="1259" d="M102 0v1434h369v-492q54 68 133 105.5t170 37.5q170 0 281.5 -112t111.5 -301v-672h-368v553q0 97 -43 146t-117 49t-120.5 -47.5t-47.5 -137.5v-563h-369z" />
<glyph unicode="i" horiz-adv-x="598" d="M74 1352q0 89 63.5 146.5t161.5 57.5t161.5 -57.5t63.5 -146.5t-63.5 -147t-161.5 -58t-161.5 58t-63.5 147zM113 0v1065h372v-1065h-372z" />
<glyph unicode="j" horiz-adv-x="598" d="M-123 -328l41 303q35 -6 76 -6q59 0 89 30.5t30 98.5v967h372v-936q0 -234 -112.5 -355.5t-323.5 -121.5q-38 0 -81 5t-67 10zM74 1352q0 89 63.5 146.5t161.5 57.5t161.5 -57.5t63.5 -146.5t-63.5 -147t-161.5 -58t-161.5 58t-63.5 147z" />
<glyph unicode="k" horiz-adv-x="1249" d="M102 0v1434h369v-828l328 459h430l-400 -481l441 -584h-441l-358 518v-518h-369z" />
<glyph unicode="l" horiz-adv-x="598" d="M113 0v1434h372v-1434h-372z" />
<glyph unicode="m" horiz-adv-x="1914" d="M102 0v1065h328l14 -143q54 78 137 120.5t183 42.5q113 0 201 -51.5t135 -146.5q51 94 140.5 146t199.5 52q169 0 276 -111.5t107 -301.5v-672h-369v553q0 97 -39.5 146t-109.5 49q-68 0 -111 -45t-47 -132v-571h-369v553q0 97 -39.5 146t-109.5 49q-68 0 -111 -45 t-47 -132v-571h-369z" />
<glyph unicode="n" horiz-adv-x="1259" d="M102 0v1065h328l16 -143q54 77 140 120t188 43q174 0 283.5 -111.5t109.5 -301.5v-672h-368v553q0 97 -43 146t-117 49q-76 0 -122 -49.5t-46 -145.5v-553h-369z" />
<glyph unicode="o" horiz-adv-x="1290" d="M61 526q0 115 45.5 218.5t123.5 178t187.5 118.5t233.5 44q251 0 414.5 -156t163.5 -390q0 -115 -45.5 -218.5t-123.5 -178t-187.5 -118.5t-233.5 -44q-251 0 -414.5 156t-163.5 390zM430 532q0 -90 61 -152.5t154 -62.5t154 62.5t61 152.5t-61 153t-154 63t-154 -63 t-61 -153z" />
<glyph unicode="p" horiz-adv-x="1320" d="M102 -328v1393h308l28 -129q123 149 316 149q136 0 252 -71t185 -197t69 -278q0 -114 -42 -218t-112 -178.5t-165.5 -118.5t-199.5 -44q-159 0 -270 100v-408h-369zM461 532q0 -90 61 -152.5t154 -62.5t154 62.5t61 152.5t-61 153t-154 63t-154 -63t-61 -153z" />
<glyph unicode="q" horiz-adv-x="1320" d="M61 526q0 114 42 218t112 178.5t165.5 118.5t199.5 44q185 0 305 -139l26 119h308v-1393h-369v420q-115 -112 -283 -112q-136 0 -252 71t-185 197t-69 278zM430 532q0 -90 61 -152.5t154 -62.5t154 62.5t61 152.5t-61 153t-154 63t-154 -63t-61 -153z" />
<glyph unicode="r" horiz-adv-x="876" d="M102 0v1065h328l19 -191q54 102 150 156.5t226 54.5l-6 -378h-78q-132 0 -199.5 -67t-70.5 -216v-424h-369z" />
<glyph unicode="s" horiz-adv-x="983" d="M20 143l154 232q6 -5 16 -13.5t43 -30.5t66.5 -39t82 -30.5t93.5 -13.5q40 0 62 14.5t22 38.5q0 29 -39 55.5t-162 69.5q-141 49 -213.5 134t-72.5 196q0 138 115 233.5t315 95.5q69 0 138 -14.5t117.5 -35.5t87.5 -42.5t58 -36.5l19 -14l-154 -235q-5 4 -14 11.5 t-36.5 26.5t-56 33.5t-70 26.5t-79.5 12t-58 -14t-20 -35q0 -26 33 -49t137 -57q152 -50 235 -137t83 -199q0 -157 -117 -251.5t-328 -94.5q-79 0 -155.5 17t-128.5 41t-93 47.5t-60 40.5z" />
<glyph unicode="t" horiz-adv-x="942" d="M41 768v297h184v246h369v-246h287v-297h-287v-348q0 -103 92 -103q34 0 72.5 5.5t59.5 10.5l22 5l41 -307q-14 -6 -39 -14.5t-103 -22.5t-155 -14q-165 0 -262 88.5t-97 248.5v451h-184z" />
<glyph unicode="u" horiz-adv-x="1259" d="M92 393v672h369v-553q0 -97 43 -146t117 -49q75 0 121 49.5t46 145.5v553h369v-1065h-328l-16 143q-55 -78 -141 -120.5t-187 -42.5q-174 0 -283.5 111.5t-109.5 301.5z" />
<glyph unicode="v" horiz-adv-x="1136" d="M-20 1065h409l189 -580l190 580h389l-409 -1065h-359z" />
<glyph unicode="w" horiz-adv-x="1648" d="M-20 1065h399l158 -571l159 571h277l155 -559l162 559h379l-348 -1065h-348l-150 514l-147 -514h-348z" />
<glyph unicode="x" horiz-adv-x="1218" d="M-20 0l409 539l-389 526h430l186 -274l193 274h410l-390 -512l410 -553h-430l-207 299l-213 -299h-409z" />
<glyph unicode="y" horiz-adv-x="1136" d="M-20 -266l114 297q7 -6 20.5 -14.5t60.5 -22.5t101 -14q36 0 62.5 10t34.5 20l8 10l-401 1045h409l189 -616l190 616h389l-409 -1075q-66 -173 -175.5 -255.5t-275.5 -82.5q-84 0 -163.5 20.5t-116.5 41.5z" />
<glyph unicode="z" horiz-adv-x="1136" d="M82 0v266l471 492h-440v307h942v-266l-471 -492h471v-307h-973z" />
<glyph unicode="{" horiz-adv-x="972" d="M61 584v266h123q82 0 82 82v297q0 192 88.5 280t280.5 88h276v-297h-184q-54 0 -78 -24t-24 -78v-235q0 -122 -51 -182.5t-146 -63.5q95 -3 146 -63.5t51 -182.5v-235q0 -54 24 -78.5t78 -24.5h184v-297h-276q-192 0 -280.5 88.5t-88.5 280.5v297q0 82 -82 82h-123z" />
<glyph unicode="|" horiz-adv-x="696" d="M205 -205v1843h287v-1843h-287z" />
<glyph unicode="}" horiz-adv-x="972" d="M61 133h185q54 0 78 24.5t24 78.5v235q0 121 51 182t144 64q-93 3 -144 64t-51 182v235q0 54 -24 78t-78 24h-185v297h277q192 0 280.5 -88t88.5 -280v-297q0 -82 81 -82h123v-266h-123q-81 0 -81 -82v-297q0 -192 -88.5 -280.5t-280.5 -88.5h-277v297z" />
<glyph unicode="~" d="M82 485q0 9 1 25.5t7.5 62.5t18.5 88.5t37.5 94t59.5 88.5t89.5 62.5t124.5 25.5q61 0 114.5 -20t90 -49t68.5 -57.5t65.5 -48.5t66.5 -20q42 0 65.5 40.5t26.5 80.5l3 41l268 -33q0 -9 -1 -25t-7.5 -62.5t-18.5 -88.5t-37.5 -93.5t-60 -88.5t-90.5 -62.5t-125 -25.5 q-61 0 -114 20t-89.5 48.5t-68.5 57t-65.5 48.5t-66.5 20q-26 0 -45.5 -16.5t-28.5 -40t-14 -47.5t-6 -40v-17z" />
<glyph unicode="&#xa1;" horiz-adv-x="696" d="M123 0l82 922h287l81 -922h-450zM123 1229q0 94 65.5 159.5t159.5 65.5t159.5 -65.5t65.5 -159.5t-65.5 -159.5t-159.5 -65.5t-159.5 65.5t-65.5 159.5z" />
<glyph unicode="&#xa2;" horiz-adv-x="1155" d="M82 895q0 202 129 350.5t334 186.5v206h205v-200q64 -8 122 -27t96 -41.5t67 -44t42 -35.5l13 -14l-254 -246l-6 9t-19.5 21t-33.5 26t-48 20.5t-63 9.5q-93 0 -154 -62.5t-61 -152.5t61 -152.5t154 -62.5q37 0 68.5 10t51 24t33.5 28t19 24l6 10l250 -239q-5 -6 -14 -16 t-41.5 -36.5t-69.5 -49t-96 -45t-123 -31.5v-201h-205v203q-207 34 -335 179t-128 349z" />
<glyph unicode="&#xa3;" horiz-adv-x="1249" d="M61 594v205h164v137q0 122 40 220.5t110.5 163.5t164.5 99.5t203 34.5q64 0 123.5 -13t103 -34.5t81 -47t62 -51t42 -47t25.5 -34.5l8 -13l-297 -200q-1 4 -4 11t-15.5 24.5t-28 31t-44 24.5t-62.5 11q-63 0 -103 -40t-40 -103v-174h389v-205h-389v-277h563v-317h-932 v594h-164z" />
<glyph unicode="&#xa4;" horiz-adv-x="1392" d="M82 240l192 184q-94 131 -94 289q0 155 99 291l-197 190l137 137l201 -194q129 82 280 82t275 -78l199 190l137 -137l-193 -186q94 -131 94 -287q0 -158 -98 -293l197 -188l-137 -138l-201 195q-132 -82 -281 -82q-152 0 -276 78l-197 -191zM492 717q0 -89 57.5 -147 t146.5 -58t147 58t58 147t-58 147t-147 58t-146.5 -58t-57.5 -147z" />
<glyph unicode="&#xa5;" horiz-adv-x="1351" d="M20 1434h451l215 -480l215 480h430l-330 -584h289v-184h-391l-29 -52v-71h420v-185h-420v-358h-389v358h-420v185h420v71l-28 52h-392v184h287z" />
<glyph unicode="&#xa6;" horiz-adv-x="696" d="M205 -205v717h287v-717h-287zM205 922v716h287v-716h-287z" />
<glyph unicode="&#xa7;" horiz-adv-x="1351" d="M82 567q0 96 59 176t168 127q-63 89 -63 199q0 172 131 278.5t346 106.5q82 0 156 -18t120.5 -43.5t81.5 -51t51 -43.5l15 -18l-225 -225q-3 4 -8.5 10.5t-25 23t-40.5 29t-54 23t-67 10.5t-58 -20t-24 -48q0 -36 41 -69.5t154 -71.5q233 -78 331.5 -177t98.5 -226 q0 -98 -59.5 -178t-170.5 -125q66 -94 66 -199q0 -172 -131 -278.5t-346 -106.5q-82 0 -156 18t-120.5 43.5t-81.5 51t-51 43.5l-15 18l225 225q3 -4 8.5 -10.5t25 -23t40.5 -29t54 -23t67 -10.5q35 0 58.5 18.5t23.5 49.5q0 76 -195 141q-233 78 -331.5 177t-98.5 226z M461 623q0 -52 57 -94t213 -89q48 -16 100 -39q60 31 60 82q0 52 -57 94t-213 89q-58 16 -103 36q-57 -28 -57 -79z" />
<glyph unicode="&#xa8;" horiz-adv-x="1044" d="M102 1350q0 79 53.5 132.5t133.5 53.5q79 0 130.5 -51t51.5 -131t-53.5 -133.5t-132.5 -53.5t-131 51.5t-52 131.5zM573 1350q0 79 53.5 132.5t133.5 53.5t131 -51t51 -131t-53.5 -133.5t-132.5 -53.5q-80 0 -131.5 51.5t-51.5 131.5z" />
<glyph unicode="&#xa9;" horiz-adv-x="1691" d="M102 713q0 153 58.5 290t158 236t238 157t293.5 58q207 0 376.5 -96.5t266 -264.5t96.5 -372t-98.5 -374t-270 -268.5t-378.5 -98.5q-155 0 -292.5 56.5t-235.5 154t-155 233.5t-57 289zM299 717q0 -153 72.5 -280t198.5 -200t276 -73t276 73t198.5 200t72.5 280 t-72.5 280t-198.5 200t-276 73t-276 -73t-198.5 -200t-72.5 -280zM455 713q0 172 116 290.5t293 118.5q61 0 116.5 -14t90 -34t60.5 -40.5t37 -34.5l12 -14l-158 -141q-2 3 -5.5 7.5t-16.5 17t-29 22t-43 17t-58 7.5q-83 0 -136.5 -56.5t-53.5 -141.5t53.5 -142t136.5 -57 q32 0 61 8.5t47 21t31.5 25t18.5 21.5l6 8l152 -139q-4 -6 -12 -16.5t-38 -36.5t-64.5 -46t-92 -36.5t-121.5 -16.5q-177 0 -290 115t-113 287z" />
<glyph unicode="&#xaa;" horiz-adv-x="835" d="M102 971q0 88 70.5 144t187.5 56q79 0 132 -26v12q0 48 -28.5 74t-82.5 26q-38 0 -77 -10.5t-59 -21.5l-20 -11l-86 142q5 3 13.5 9t37 21t60 26t80 20.5t98.5 9.5q142 0 223.5 -77.5t81.5 -213.5v-360h-182l-19 43q-72 -56 -180 -56q-117 0 -183.5 52.5t-66.5 140.5z M123 553v143h610v-143h-610zM344 981q0 -27 20.5 -47.5t55.5 -20.5t56.5 20.5t21.5 47.5t-21.5 47.5t-56.5 20.5t-55.5 -20.5t-20.5 -47.5z" />
<glyph unicode="&#xab;" horiz-adv-x="1576" d="M102 655v123l492 471l194 -194l-305 -334l305 -332l-194 -205zM768 655v123l492 471l194 -194l-305 -334l305 -332l-194 -205z" />
<glyph unicode="&#xac;" d="M102 645v287h1065v-604h-307v317h-758z" />
<glyph unicode="&#xad;" horiz-adv-x="860" d="M102 563v328h656v-328h-656z" />
<glyph unicode="&#xae;" horiz-adv-x="1097" d="M102 1010q0 186 130 315t319 129t316.5 -127t127.5 -313t-129.5 -315.5t-318.5 -129.5t-317 127.5t-128 313.5zM221 1012q0 -139 95.5 -235.5t232.5 -96.5t232.5 96.5t95.5 235.5t-95.5 235t-232.5 96t-232.5 -96t-95.5 -235zM381 797v430h199q72 0 116.5 -40t44.5 -106 q0 -45 -22.5 -79t-61.5 -52l103 -153h-135l-86 137h-41v-137h-117zM498 1024h67q29 0 44.5 13.5t15.5 37.5t-15.5 38.5t-44.5 14.5h-67v-104z" />
<glyph unicode="&#xaf;" horiz-adv-x="942" d="M102 1249v205h738v-205h-738z" />
<glyph unicode="&#xb0;" horiz-adv-x="913" d="M82 1083q0 157 109.5 264t267.5 107t265 -105t107 -262t-109 -263.5t-267 -106.5q-159 0 -266 105t-107 261zM293 1085q0 -74 46 -122t118 -48t118 48t46 122t-46 122t-118 48t-118 -48t-46 -122z" />
<glyph unicode="&#xb1;" d="M102 41v287h1065v-287h-1065zM102 768v287h385v338h295v-338h385v-287h-385v-338h-295v338h-385z" />
<glyph unicode="&#xb2;" horiz-adv-x="747" d="M61 1255q3 8 10 21t33.5 45.5t60.5 58t93.5 46t128.5 20.5q134 0 216.5 -74t82.5 -184q0 -84 -40.5 -151t-129.5 -144l-131 -113h295v-207h-600v187l278 256q48 45 67 75.5t19 65.5q0 31 -22 53.5t-57 22.5q-24 0 -46 -9.5t-36 -23t-25 -27t-16 -23.5l-4 -9z" />
<glyph unicode="&#xb3;" horiz-adv-x="745" d="M41 745l182 105q1 -3 4 -9t13.5 -21t24 -26t36.5 -20.5t49 -9.5q42 0 67 23t25 55q0 38 -26.5 62t-83.5 24h-86v170h86q43 0 64.5 20.5t21.5 55.5q0 33 -21 51t-53 18q-21 0 -38.5 -7t-27.5 -16.5t-17.5 -19.5t-10.5 -17l-2 -7l-176 98q3 7 9 18.5t30.5 41t54.5 52.5 t82.5 41.5t113.5 18.5q128 0 212.5 -65t84.5 -171q0 -58 -30.5 -107.5t-83.5 -82.5q139 -68 139 -205q0 -116 -90.5 -185t-239.5 -69q-65 0 -121 19t-89.5 46t-58 54t-34.5 46z" />
<glyph unicode="&#xb4;" horiz-adv-x="757" d="M123 1167l123 349h389l-225 -349h-287z" />
<glyph unicode="&#xb5;" d="M102 -328v1393h369v-553q0 -97 43 -146t117 -49t119.5 46.5t48.5 138.5v563h368v-1065h-327l-17 143q-54 -78 -135 -120.5t-172 -42.5q-8 0 -23 1t-22 1v-310h-369z" />
<glyph unicode="&#xb6;" horiz-adv-x="1679" d="M82 973q0 199 146.5 330t371.5 131h895v-1434h-328v1137h-204v-1137h-328v522h-47q-225 0 -365.5 126t-140.5 325z" />
<glyph unicode="&#xb7;" horiz-adv-x="655" d="M102 717q0 94 66 159.5t160 65.5t159.5 -65.5t65.5 -159.5t-65.5 -159.5t-159.5 -65.5t-160 65.5t-66 159.5z" />
<glyph unicode="&#xb8;" horiz-adv-x="727" d="M92 -346l72 209q38 -27 106 -27q53 0 86 25t33 73q0 20 -8.5 36.5t-17.5 23.5l-9 6l107 143q7 -2 19.5 -7.5t44.5 -26t56 -45.5t44 -69.5t20 -96.5q0 -90 -49.5 -159.5t-125.5 -103.5t-163 -34q-56 0 -110 13.5t-79 26.5z" />
<glyph unicode="&#xb9;" horiz-adv-x="659" d="M41 1212l311 222h205v-861h-242v582l-157 -102z" />
<glyph unicode="&#xba;" horiz-adv-x="921" d="M102 1106q0 141 104 238.5t259 97.5q154 0 254 -93.5t100 -234.5t-103.5 -238.5t-258.5 -97.5q-154 0 -254.5 94t-100.5 234zM123 553v143h676v-143h-676zM344 1110q0 -50 33 -83.5t84 -33.5t84 33.5t33 83.5t-33 83.5t-84 33.5t-84 -33.5t-33 -83.5z" />
<glyph unicode="&#xbb;" horiz-adv-x="1576" d="M123 379l305 332l-305 333l194 205l492 -471v-123l-492 -471zM788 379l306 332l-306 333l195 205l492 -471v-123l-492 -471z" />
<glyph unicode="&#xbc;" horiz-adv-x="1710" d="M41 1212l311 222h205v-861h-242v582l-157 -102zM266 0l994 1434h235l-993 -1434h-236zM932 166v196l356 498h238v-510h123v-184h-123v-166h-219v166h-375zM1122 350h185v256z" />
<glyph unicode="&#xbd;" horiz-adv-x="1820" d="M41 1212l311 222h205v-861h-242v582l-157 -102zM266 0l994 1434h235l-993 -1434h-236zM1114 682q3 8 10 20.5t33.5 45.5t60.5 58t93.5 45.5t128.5 20.5q134 0 216.5 -74t82.5 -184q0 -84 -40.5 -151t-129.5 -144l-131 -112h295v-207h-600v186l278 256q48 45 67 76t19 66 q0 31 -22.5 53t-57.5 22q-24 0 -46 -9.5t-36 -23t-25 -27t-16 -23.5l-4 -9z" />
<glyph unicode="&#xbe;" horiz-adv-x="1751" d="M41 745l182 105q1 -3 4 -9t13.5 -21t24 -26t36.5 -20.5t49 -9.5q42 0 67 23t25 55q0 38 -26.5 62t-83.5 24h-86v170h86q43 0 64.5 20.5t21.5 55.5q0 33 -21 51t-53 18q-21 0 -38.5 -7t-27.5 -16.5t-17.5 -19.5t-10.5 -17l-2 -7l-176 98q3 7 9 18.5t30.5 41t54.5 52.5 t82.5 41.5t113.5 18.5q128 0 212.5 -65t84.5 -171q0 -58 -30.5 -107.5t-83.5 -82.5q139 -68 139 -205q0 -116 -90.5 -185t-239.5 -69q-65 0 -121 19t-89.5 46t-58 54t-34.5 46zM307 0l993 1434h236l-993 -1434h-236zM973 166v196l356 498h238v-510h123v-184h-123v-166h-219 v166h-375zM1163 350h185v256z" />
<glyph unicode="&#xbf;" horiz-adv-x="1105" d="M82 383q0 85 28 153.5t70.5 115t87 86t85.5 87t57 97.5h327q0 -63 -20.5 -118t-50.5 -91.5t-66 -73t-66 -64t-50.5 -62t-20.5 -69.5q0 -46 31.5 -79t80.5 -33q39 0 72.5 14.5t52.5 35.5t32.5 42.5t18.5 35.5l5 15l288 -178q-2 -7 -6.5 -18t-22 -44t-40.5 -63t-64 -66.5 t-90 -63t-120.5 -44.5t-153.5 -18q-196 0 -330.5 118t-134.5 285zM348 1229q0 94 65.5 159.5t159.5 65.5t160 -65.5t66 -159.5t-66 -159.5t-160 -65.5t-159.5 65.5t-65.5 159.5z" />
<glyph unicode="&#xc0;" horiz-adv-x="1515" d="M0 0l563 1434h389l564 -1434h-431l-84 246h-507l-84 -246h-410zM399 1884h389l123 -348h-286zM598 553h297l-147 432z" />
<glyph unicode="&#xc1;" horiz-adv-x="1515" d="M0 0l563 1434h389l564 -1434h-431l-84 246h-507l-84 -246h-410zM598 553h297l-147 432zM604 1536l123 348h389l-225 -348h-287z" />
<glyph unicode="&#xc2;" horiz-adv-x="1515" d="M0 0l563 1434h389l564 -1434h-431l-84 246h-507l-84 -246h-410zM317 1536l277 348h328l276 -348h-313l-133 137l-134 -137h-301zM598 553h297l-147 432z" />
<glyph unicode="&#xc3;" horiz-adv-x="1515" d="M0 0l563 1434h389l564 -1434h-431l-84 246h-507l-84 -246h-410zM381 1581q0 6 1 17t6 42.5t13.5 60t26 63.5t41 60.5t60.5 42.5t83 17q53 0 98 -20.5t70 -45t56 -45t59 -20.5q25 0 41.5 26.5t20.5 52.5l4 26l172 -19q0 -6 -1 -17t-6.5 -42.5t-14 -60t-26.5 -63.5 t-41.5 -60.5t-61 -42.5t-83.5 -17q-52 0 -96.5 20.5t-70 45t-56.5 45t-60 20.5q-24 0 -40 -26t-20 -52l-3 -26zM598 553h297l-147 432z" />
<glyph unicode="&#xc4;" horiz-adv-x="1515" d="M0 0l563 1434h389l564 -1434h-431l-84 246h-507l-84 -246h-410zM338 1718q0 80 53.5 133.5t132.5 53.5q80 0 131.5 -51.5t51.5 -131.5q0 -79 -53.5 -132.5t-133.5 -53.5t-131 51t-51 131zM598 553h297l-147 432zM809 1718q0 80 53.5 133.5t132.5 53.5t131 -51.5 t52 -131.5q0 -79 -53.5 -132.5t-133.5 -53.5q-79 0 -130.5 51t-51.5 131z" />
<glyph unicode="&#xc5;" horiz-adv-x="1515" d="M0 0l563 1434h389l564 -1434h-431l-84 246h-507l-84 -246h-410zM532 1731q0 94 64 154.5t162 60.5t161.5 -60.5t63.5 -154.5t-63.5 -154.5t-161.5 -60.5t-162 60.5t-64 154.5zM598 553h297l-147 432zM670 1731q0 -36 24.5 -62.5t63.5 -26.5q38 0 62 26t24 63 q0 36 -23.5 61t-62.5 25t-63.5 -25t-24.5 -61z" />
<glyph unicode="&#xc6;" horiz-adv-x="2201" d="M-20 0l829 1434h1290v-338h-696v-205h594v-318h-594v-235h717v-338h-1106v246h-471l-133 -246h-430zM709 553h305v559z" />
<glyph unicode="&#xc7;" horiz-adv-x="1460" d="M82 711q0 204 100 374.5t276 269.5t388 99q81 0 155.5 -13t129.5 -34.5t102.5 -47t79 -51t54 -47t32.5 -34.5l10 -13l-289 -249q-3 5 -10 14t-31.5 31.5t-54 40t-79 31.5t-105.5 14q-160 0 -264.5 -108.5t-104.5 -270.5t104.5 -270.5t264.5 -108.5q59 0 112 16t86.5 38.5 t58.5 45t35 38.5l11 16l276 -246q-6 -8 -17 -22.5t-51 -52.5t-87.5 -69.5t-125.5 -64.5t-165 -47q18 -49 18 -92q0 -90 -49.5 -159.5t-125.5 -103.5t-163 -34q-56 0 -110 13.5t-79 26.5l-26 13l72 209q38 -27 106 -27q53 0 86 25t33 73q0 29 -20 54q-183 25 -327.5 125 t-225 256.5t-80.5 341.5z" />
<glyph unicode="&#xc8;" horiz-adv-x="1331" d="M143 0v1434h1086v-338h-697v-205h594v-318h-594v-235h717v-338h-1106zM369 1884h389l123 -348h-287z" />
<glyph unicode="&#xc9;" horiz-adv-x="1331" d="M143 0v1434h1086v-338h-697v-205h594v-318h-594v-235h717v-338h-1106zM553 1536l123 348h389l-225 -348h-287z" />
<glyph unicode="&#xca;" horiz-adv-x="1331" d="M143 0v1434h1086v-338h-697v-205h594v-318h-594v-235h717v-338h-1106zM246 1536l276 348h328l276 -348h-313l-133 137l-133 -137h-301z" />
<glyph unicode="&#xcb;" horiz-adv-x="1331" d="M143 0v1434h1086v-338h-697v-205h594v-318h-594v-235h717v-338h-1106zM266 1718q0 80 54 133.5t133 53.5t130.5 -51.5t51.5 -131.5t-53.5 -133t-132.5 -53q-80 0 -131.5 51.5t-51.5 130.5zM737 1718q0 80 53.5 133.5t133.5 53.5q79 0 130.5 -51.5t51.5 -131.5t-53 -133 t-133 -53t-131.5 51.5t-51.5 130.5z" />
<glyph unicode="&#xcc;" horiz-adv-x="706" d="M16 1884h390l122 -348h-286zM154 0v1434h399v-1434h-399z" />
<glyph unicode="&#xcd;" horiz-adv-x="706" d="M154 0v1434h399v-1434h-399zM180 1536l123 348h389l-225 -348h-287z" />
<glyph unicode="&#xce;" horiz-adv-x="706" d="M-86 1536l276 348h328l277 -348h-314l-133 137l-133 -137h-301zM154 0v1434h399v-1434h-399z" />
<glyph unicode="&#xcf;" horiz-adv-x="706" d="M-66 1718q0 80 54 133.5t133 53.5t130.5 -51.5t51.5 -131.5t-53.5 -133t-132.5 -53q-80 0 -131.5 51.5t-51.5 130.5zM154 0v1434h399v-1434h-399zM406 1718q0 80 53.5 133.5t132.5 53.5t130.5 -51.5t51.5 -131.5t-53 -133t-133 -53t-131 51t-51 131z" />
<glyph unicode="&#xd0;" horiz-adv-x="1638" d="M61 625v204h164v605h539q171 0 318.5 -54t251.5 -148t163 -226t59 -283t-61 -285t-167 -230t-255.5 -152t-320.5 -56h-527v625h-164zM614 338h154q175 0 287 106.5t112 272.5t-112 272.5t-287 106.5h-154v-267h287v-204h-287v-287z" />
<glyph unicode="&#xd1;" horiz-adv-x="1617" d="M143 0v1434h400l553 -822v822h379v-1434h-379l-574 850v-850h-379zM432 1581q0 6 1 17t6 42.5t13.5 60t26.5 63.5t41.5 60.5t60.5 42.5t83 17q53 0 97.5 -20.5t70 -45t56 -45t58.5 -20.5q25 0 41.5 26.5t20.5 52.5l4 26l172 -19q0 -6 -1 -17t-6.5 -42.5t-14 -60 t-26.5 -63.5t-41.5 -60.5t-61 -42.5t-83.5 -17q-52 0 -96.5 20.5t-69.5 45t-56 45t-60 20.5q-24 0 -40 -26t-20 -52l-4 -26z" />
<glyph unicode="&#xd2;" horiz-adv-x="1679" d="M82 711q0 204 100 374.5t276 269.5t388 99q213 0 385 -96t269 -263t97 -372q0 -204 -100 -374.5t-275.5 -269.5t-387.5 -99q-159 0 -299 56.5t-239.5 153.5t-156.5 232.5t-57 288.5zM471 717q0 -162 104.5 -270.5t264.5 -108.5t264 108.5t104 270.5t-104 270.5 t-264 108.5t-264.5 -108.5t-104.5 -270.5zM481 1884h389l123 -348h-286z" />
<glyph unicode="&#xd3;" horiz-adv-x="1679" d="M82 711q0 204 100 374.5t276 269.5t388 99q213 0 385 -96t269 -263t97 -372q0 -204 -100 -374.5t-275.5 -269.5t-387.5 -99q-159 0 -299 56.5t-239.5 153.5t-156.5 232.5t-57 288.5zM471 717q0 -162 104.5 -270.5t264.5 -108.5t264 108.5t104 270.5t-104 270.5 t-264 108.5t-264.5 -108.5t-104.5 -270.5zM686 1536l123 348h389l-225 -348h-287z" />
<glyph unicode="&#xd4;" horiz-adv-x="1679" d="M82 711q0 204 100 374.5t276 269.5t388 99q213 0 385 -96t269 -263t97 -372q0 -204 -100 -374.5t-275.5 -269.5t-387.5 -99q-159 0 -299 56.5t-239.5 153.5t-156.5 232.5t-57 288.5zM399 1536l277 348h328l276 -348h-313l-133 137l-134 -137h-301zM471 717 q0 -162 104.5 -270.5t264.5 -108.5t264 108.5t104 270.5t-104 270.5t-264 108.5t-264.5 -108.5t-104.5 -270.5z" />
<glyph unicode="&#xd5;" horiz-adv-x="1679" d="M82 711q0 204 100 374.5t276 269.5t388 99q213 0 385 -96t269 -263t97 -372q0 -204 -100 -374.5t-275.5 -269.5t-387.5 -99q-159 0 -299 56.5t-239.5 153.5t-156.5 232.5t-57 288.5zM463 1581q0 6 1 17t6 42.5t13.5 60t26 63.5t41 60.5t60.5 42.5t83 17q53 0 98 -20.5 t70 -45t56 -45t59 -20.5q25 0 41.5 26.5t19.5 52.5l4 26l172 -19q0 -6 -1 -17t-6 -42.5t-13.5 -60t-26.5 -63.5t-41.5 -60.5t-61 -42.5t-83.5 -17q-52 0 -96.5 20.5t-70 45t-56.5 45t-60 20.5q-24 0 -40 -26t-20 -52l-3 -26zM471 717q0 -162 104.5 -270.5t264.5 -108.5 t264 108.5t104 270.5t-104 270.5t-264 108.5t-264.5 -108.5t-104.5 -270.5z" />
<glyph unicode="&#xd6;" horiz-adv-x="1679" d="M82 711q0 204 100 374.5t276 269.5t388 99q213 0 385 -96t269 -263t97 -372q0 -204 -100 -374.5t-275.5 -269.5t-387.5 -99q-159 0 -299 56.5t-239.5 153.5t-156.5 232.5t-57 288.5zM420 1718q0 80 53.5 133.5t132.5 53.5t130.5 -51.5t51.5 -131.5t-53 -133t-133 -53 t-131 51t-51 131zM471 717q0 -162 104.5 -270.5t264.5 -108.5t264 108.5t104 270.5t-104 270.5t-264 108.5t-264.5 -108.5t-104.5 -270.5zM891 1718q0 80 53.5 133.5t132.5 53.5t131 -51.5t52 -131.5q0 -79 -53.5 -132.5t-133.5 -53.5q-79 0 -130.5 51t-51.5 131z" />
<glyph unicode="&#xd7;" d="M92 381l342 336l-342 336l205 204l338 -342l338 342l205 -204l-344 -336l344 -336l-205 -205l-338 342l-338 -342z" />
<glyph unicode="&#xd8;" horiz-adv-x="1679" d="M61 -61l222 264q-96 99 -148.5 229.5t-52.5 278.5q0 204 100 374.5t276 269.5t388 99q222 0 401 -106l125 147h246l-223 -264q97 -100 149.5 -230t52.5 -278q0 -204 -100 -374.5t-275.5 -269.5t-387.5 -99q-225 0 -404 106l-123 -147h-246zM461 717q0 -133 65 -228 l486 578q-80 39 -172 39q-165 0 -272 -111t-107 -278zM668 367q80 -39 172 -39q165 0 272 111t107 278q0 124 -66 225z" />
<glyph unicode="&#xd9;" horiz-adv-x="1515" d="M123 588v846h395v-830q0 -123 67.5 -194.5t178.5 -71.5t178.5 71.5t67.5 194.5v830h383v-834q0 -280 -177 -450t-464 -170t-458 164t-171 444zM420 1884h389l123 -348h-287z" />
<glyph unicode="&#xda;" horiz-adv-x="1515" d="M123 588v846h395v-830q0 -123 67.5 -194.5t178.5 -71.5t178.5 71.5t67.5 194.5v830h383v-834q0 -280 -177 -450t-464 -170t-458 164t-171 444zM604 1536l123 348h389l-225 -348h-287z" />
<glyph unicode="&#xdb;" horiz-adv-x="1515" d="M123 588v846h395v-830q0 -123 67.5 -194.5t178.5 -71.5t178.5 71.5t67.5 194.5v830h383v-834q0 -280 -177 -450t-464 -170t-458 164t-171 444zM328 1536l276 348h328l276 -348h-313l-133 137l-133 -137h-301z" />
<glyph unicode="&#xdc;" horiz-adv-x="1515" d="M123 588v846h395v-830q0 -123 67.5 -194.5t178.5 -71.5t178.5 71.5t67.5 194.5v830h383v-834q0 -280 -177 -450t-464 -170t-458 164t-171 444zM348 1718q0 80 54 133.5t133 53.5t130.5 -51.5t51.5 -131.5q0 -79 -53.5 -132.5t-133.5 -53.5t-131 51t-51 131zM819 1718 q0 80 53.5 133.5t133.5 53.5q79 0 130.5 -51.5t51.5 -131.5q0 -79 -53.5 -132.5t-133.5 -53.5q-79 0 -130.5 51t-51.5 131z" />
<glyph unicode="&#xdd;" horiz-adv-x="1454" d="M0 1434h451l286 -549l287 549h430l-532 -922v-512h-390v512zM573 1536l123 348h389l-225 -348h-287z" />
<glyph unicode="&#xde;" horiz-adv-x="1402" d="M143 0v1434h389v-205h252q243 0 390 -134t147 -352t-153 -357.5t-396 -139.5h-240v-246h-389zM532 563h205q89 0 142 47t53 127t-53 127t-142 47h-205v-348z" />
<glyph unicode="&#xdf;" d="M102 0v973q0 217 144 349t379 132q229 0 370.5 -114.5t141.5 -295.5q0 -173 -131 -276q102 -55 157.5 -144t55.5 -204q0 -192 -144 -316t-368 -124q-40 0 -76 3.5t-52 6.5l-16 4l31 301q39 -8 72 -8q85 0 134.5 43t49.5 110q0 68 -49.5 111t-134.5 43h-62v287h21 q64 0 103.5 37t39.5 96t-39.5 96t-103.5 37q-70 0 -112 -45t-42 -123v-979h-369z" />
<glyph unicode="&#xe0;" horiz-adv-x="1177" d="M61 301q0 145 115 239.5t301 94.5q140 0 240 -53v22q0 79 -57.5 126.5t-147.5 47.5q-64 0 -125.5 -18t-90.5 -36l-30 -17l-143 235q7 6 20 15.5t58.5 34t96 43.5t130 34.5t162.5 15.5q228 0 361.5 -129.5t133.5 -355.5v-600h-286l-27 80q-115 -100 -307 -100 q-187 0 -295.5 88.5t-108.5 232.5zM289 1516h389l123 -349h-287zM430 317q0 -48 41.5 -80t106.5 -32t107 32t42 80t-42 80.5t-107 32.5t-106.5 -32.5t-41.5 -80.5z" />
<glyph unicode="&#xe1;" horiz-adv-x="1177" d="M61 301q0 145 115 239.5t301 94.5q140 0 240 -53v22q0 79 -57.5 126.5t-147.5 47.5q-64 0 -125.5 -18t-90.5 -36l-30 -17l-143 235q7 6 20 15.5t58.5 34t96 43.5t130 34.5t162.5 15.5q228 0 361.5 -129.5t133.5 -355.5v-600h-286l-27 80q-115 -100 -307 -100 q-187 0 -295.5 88.5t-108.5 232.5zM430 317q0 -48 41.5 -80t106.5 -32t107 32t42 80t-42 80.5t-107 32.5t-106.5 -32.5t-41.5 -80.5zM434 1167l123 349h389l-225 -349h-287z" />
<glyph unicode="&#xe2;" horiz-adv-x="1177" d="M61 301q0 145 115 239.5t301 94.5q140 0 240 -53v22q0 79 -57.5 126.5t-147.5 47.5q-64 0 -125.5 -18t-90.5 -36l-30 -17l-143 235q7 6 20 15.5t58.5 34t96 43.5t130 34.5t162.5 15.5q228 0 361.5 -129.5t133.5 -355.5v-600h-286l-27 80q-115 -100 -307 -100 q-187 0 -295.5 88.5t-108.5 232.5zM168 1167l276 349h328l277 -349h-314l-133 138l-133 -138h-301zM430 317q0 -48 41.5 -80t106.5 -32t107 32t42 80t-42 80.5t-107 32.5t-106.5 -32.5t-41.5 -80.5z" />
<glyph unicode="&#xe3;" horiz-adv-x="1177" d="M61 301q0 145 115 239.5t301 94.5q140 0 240 -53v22q0 79 -57.5 126.5t-147.5 47.5q-64 0 -125.5 -18t-90.5 -36l-30 -17l-143 235q7 6 20 15.5t58.5 34t96 43.5t130 34.5t162.5 15.5q228 0 361.5 -129.5t133.5 -355.5v-600h-286l-27 80q-115 -100 -307 -100 q-187 0 -295.5 88.5t-108.5 232.5zM254 1212q0 6 1 17t6 42.5t13.5 60.5t26 64t41 60t60.5 42.5t83 17.5q43 0 80.5 -13.5t62.5 -33t47.5 -39t46 -33t46.5 -13.5q25 0 41.5 26t20.5 52l4 27l172 -19q0 -6 -1 -17t-6.5 -42.5t-14 -60t-26.5 -63.5t-41.5 -60.5t-61 -42.5 t-83.5 -17q-52 0 -96.5 20.5t-70 45t-56.5 45t-60 20.5q-24 0 -40 -26t-19 -52l-4 -26zM430 317q0 -48 41.5 -80t106.5 -32t107 32t42 80t-42 80.5t-107 32.5t-106.5 -32.5t-41.5 -80.5z" />
<glyph unicode="&#xe4;" horiz-adv-x="1177" d="M61 301q0 145 115 239.5t301 94.5q140 0 240 -53v22q0 79 -57.5 126.5t-147.5 47.5q-64 0 -125.5 -18t-90.5 -36l-30 -17l-143 235q7 6 20 15.5t58.5 34t96 43.5t130 34.5t162.5 15.5q228 0 361.5 -129.5t133.5 -355.5v-600h-286l-27 80q-115 -100 -307 -100 q-187 0 -295.5 88.5t-108.5 232.5zM188 1350q0 79 53.5 132.5t133.5 53.5q79 0 130.5 -51t51.5 -131t-53.5 -133.5t-132.5 -53.5t-131 51.5t-52 131.5zM430 317q0 -48 41.5 -80t106.5 -32t107 32t42 80t-42 80.5t-107 32.5t-106.5 -32.5t-41.5 -80.5zM659 1350 q0 79 53.5 132.5t133.5 53.5t131 -51t51 -131t-53.5 -133.5t-132.5 -53.5q-80 0 -131.5 51.5t-51.5 131.5z" />
<glyph unicode="&#xe5;" horiz-adv-x="1177" d="M61 301q0 145 115 239.5t301 94.5q140 0 240 -53v22q0 79 -57.5 126.5t-147.5 47.5q-64 0 -125.5 -18t-90.5 -36l-30 -17l-143 235q7 6 20 15.5t58.5 34t96 43.5t130 34.5t162.5 15.5q228 0 361.5 -129.5t133.5 -355.5v-600h-286l-27 80q-115 -100 -307 -100 q-187 0 -295.5 88.5t-108.5 232.5zM383 1362q0 94 63.5 154.5t161.5 60.5t162 -60.5t64 -154.5t-64 -154.5t-162 -60.5t-161.5 60.5t-63.5 154.5zM430 317q0 -48 41.5 -80t106.5 -32t107 32t42 80t-42 80.5t-107 32.5t-106.5 -32.5t-41.5 -80.5zM520 1362q0 -36 24.5 -62 t63.5 -26t62.5 25.5t23.5 62.5q0 36 -23.5 61t-62.5 25t-63.5 -25t-24.5 -61z" />
<glyph unicode="&#xe6;" horiz-adv-x="1884" d="M61 301q0 145 115 239.5t301 94.5q140 0 240 -53v22q0 79 -57.5 126.5t-147.5 47.5q-64 0 -125.5 -18t-90.5 -36l-30 -17l-143 235q7 6 20 15.5t58.5 34t96 43.5t130 34.5t162.5 15.5q219 0 344 -147q157 147 362 147q149 0 273 -69.5t194 -185t70 -250.5q0 -36 -5.5 -68 t-10.5 -46l-5 -15h-718q19 -70 79 -112t148 -42q43 0 83 9.5t66.5 23t46.5 27t29 23.5l10 9l216 -215q-6 -8 -17.5 -21t-54.5 -46.5t-93.5 -59t-134.5 -46.5t-178 -21q-113 0 -211.5 41.5t-171.5 117.5q-130 -159 -395 -159q-213 0 -334 88t-121 233zM430 317 q0 -48 41.5 -80t106.5 -32t107 32t42 80t-42 80.5t-107 32.5t-106.5 -32.5t-41.5 -80.5zM1090 666h391q-12 63 -67 108t-124 45q-74 0 -128 -43t-72 -110z" />
<glyph unicode="&#xe7;" horiz-adv-x="1093" d="M61 526q0 115 45.5 218.5t123.5 178t187.5 118.5t233.5 44q79 0 151 -18.5t118.5 -44.5t81.5 -52t51 -44l16 -19l-254 -245l-6 9t-19.5 21t-33.5 26t-48 20.5t-63 9.5q-93 0 -154 -63t-61 -153t61 -152.5t154 -62.5q37 0 68.5 10t51 24.5t33.5 28.5t20 24l5 10l250 -240 q-4 -6 -12.5 -15.5t-37 -35t-61.5 -48t-86 -46t-110 -35.5q20 -48 20 -96q0 -90 -49.5 -159.5t-125 -103.5t-162.5 -34q-56 0 -110 13.5t-80 26.5l-26 13l72 209q39 -27 107 -27q53 0 85.5 25t32.5 73q0 34 -26 60q-199 40 -321 186t-122 346z" />
<glyph unicode="&#xe8;" horiz-adv-x="1228" d="M61 526q0 154 75.5 282t209 202.5t295.5 74.5q149 0 273 -69.5t194 -185t70 -250.5q0 -36 -5 -68t-11 -46l-5 -15h-719q19 -70 79.5 -112t148.5 -42q43 0 83 9.5t66.5 23t46.5 27t30 23.5l9 9l215 -215q-6 -8 -17.5 -21t-54 -46.5t-93 -59t-134.5 -46.5t-178 -21 q-251 0 -414.5 156t-163.5 390zM317 1516h390l122 -349h-286zM434 666h391q-12 63 -66.5 108t-123.5 45q-74 0 -128.5 -43t-72.5 -110z" />
<glyph unicode="&#xe9;" horiz-adv-x="1228" d="M61 526q0 154 75.5 282t209 202.5t295.5 74.5q149 0 273 -69.5t194 -185t70 -250.5q0 -36 -5 -68t-11 -46l-5 -15h-719q19 -70 79.5 -112t148.5 -42q43 0 83 9.5t66.5 23t46.5 27t30 23.5l9 9l215 -215q-6 -8 -17.5 -21t-54 -46.5t-93 -59t-134.5 -46.5t-178 -21 q-251 0 -414.5 156t-163.5 390zM434 666h391q-12 63 -66.5 108t-123.5 45q-74 0 -128.5 -43t-72.5 -110zM522 1167l123 349h389l-225 -349h-287z" />
<glyph unicode="&#xea;" horiz-adv-x="1228" d="M61 526q0 154 75.5 282t209 202.5t295.5 74.5q149 0 273 -69.5t194 -185t70 -250.5q0 -36 -5 -68t-11 -46l-5 -15h-719q19 -70 79.5 -112t148.5 -42q43 0 83 9.5t66.5 23t46.5 27t30 23.5l9 9l215 -215q-6 -8 -17.5 -21t-54 -46.5t-93 -59t-134.5 -46.5t-178 -21 q-251 0 -414.5 156t-163.5 390zM195 1167l276 349h328l276 -349h-313l-133 138l-133 -138h-301zM434 666h391q-12 63 -66.5 108t-123.5 45q-74 0 -128.5 -43t-72.5 -110z" />
<glyph unicode="&#xeb;" horiz-adv-x="1228" d="M61 526q0 154 75.5 282t209 202.5t295.5 74.5q149 0 273 -69.5t194 -185t70 -250.5q0 -36 -5 -68t-11 -46l-5 -15h-719q19 -70 79.5 -112t148.5 -42q43 0 83 9.5t66.5 23t46.5 27t30 23.5l9 9l215 -215q-6 -8 -17.5 -21t-54 -46.5t-93 -59t-134.5 -46.5t-178 -21 q-251 0 -414.5 156t-163.5 390zM215 1350q0 80 53.5 133t132.5 53q80 0 131.5 -51.5t51.5 -130.5q0 -80 -54 -133.5t-133 -53.5t-130.5 51.5t-51.5 131.5zM434 666h391q-12 63 -66.5 108t-123.5 45q-74 0 -128.5 -43t-72.5 -110zM686 1350q0 80 53 133t133 53t131.5 -51.5 t51.5 -130.5q0 -80 -53.5 -133.5t-133.5 -53.5q-79 0 -130.5 51.5t-51.5 131.5z" />
<glyph unicode="&#xec;" horiz-adv-x="598" d="M-59 1516h389l123 -349h-287zM113 0v1065h372v-1065h-372z" />
<glyph unicode="&#xed;" horiz-adv-x="598" d="M113 0v1065h372v-1065h-372zM145 1167l123 349h389l-225 -349h-287z" />
<glyph unicode="&#xee;" horiz-adv-x="598" d="M-141 1167l276 349h328l276 -349h-313l-133 138l-133 -138h-301zM113 0v1065h372v-1065h-372z" />
<glyph unicode="&#xef;" horiz-adv-x="598" d="M-121 1350q0 79 53.5 132.5t133.5 53.5t131 -51t51 -131t-54 -133.5t-133 -53.5t-130.5 51.5t-51.5 131.5zM113 0v1065h372v-1065h-372zM350 1350q0 79 53.5 132.5t133.5 53.5q79 0 130.5 -51t51.5 -131t-53.5 -133.5t-133.5 -53.5q-79 0 -130.5 51.5t-51.5 131.5z" />
<glyph unicode="&#xf0;" horiz-adv-x="1290" d="M61 526q0 139 72.5 255t188.5 179.5t247 63.5q30 0 84 -12l-90 121l-309 -68v184l190 41l-106 144h410l45 -66l346 76v-184l-234 -52l176 -250q148 -208 148 -426q0 -118 -49.5 -222.5t-131 -176t-188.5 -112.5t-221 -41q-160 0 -290 64t-209 190t-79 292zM430 532 q0 -90 61 -152.5t154 -62.5t154 62.5t61 152.5t-61 153t-154 63t-154 -63t-61 -153z" />
<glyph unicode="&#xf1;" horiz-adv-x="1259" d="M102 0v1065h328l16 -143q54 77 140 120t188 43q174 0 283.5 -111.5t109.5 -301.5v-672h-368v553q0 97 -43 146t-117 49q-76 0 -122 -49.5t-46 -145.5v-553h-369zM254 1212q0 6 1 17t6 42.5t13.5 60.5t26 64t41 60t60.5 42.5t83 17.5q43 0 80.5 -13.5t62.5 -33t47.5 -39 t46 -33t46.5 -13.5q25 0 41.5 26t20.5 52l4 27l172 -19q0 -6 -1 -17t-6.5 -42.5t-14 -60t-26.5 -63.5t-41.5 -60.5t-61 -42.5t-83.5 -17q-52 0 -96.5 20.5t-70 45t-56.5 45t-60 20.5q-24 0 -40 -26t-19 -52l-4 -26z" />
<glyph unicode="&#xf2;" horiz-adv-x="1290" d="M61 526q0 115 45.5 218.5t123.5 178t187.5 118.5t233.5 44q251 0 414.5 -156t163.5 -390q0 -115 -45.5 -218.5t-123.5 -178t-187.5 -118.5t-233.5 -44q-251 0 -414.5 156t-163.5 390zM307 1516h389l123 -349h-287zM430 532q0 -90 61 -152.5t154 -62.5t154 62.5t61 152.5 t-61 153t-154 63t-154 -63t-61 -153z" />
<glyph unicode="&#xf3;" horiz-adv-x="1290" d="M61 526q0 115 45.5 218.5t123.5 178t187.5 118.5t233.5 44q251 0 414.5 -156t163.5 -390q0 -115 -45.5 -218.5t-123.5 -178t-187.5 -118.5t-233.5 -44q-251 0 -414.5 156t-163.5 390zM430 532q0 -90 61 -152.5t154 -62.5t154 62.5t61 152.5t-61 153t-154 63t-154 -63 t-61 -153zM471 1167l123 349h389l-225 -349h-287z" />
<glyph unicode="&#xf4;" horiz-adv-x="1290" d="M61 526q0 115 45.5 218.5t123.5 178t187.5 118.5t233.5 44q251 0 414.5 -156t163.5 -390q0 -115 -45.5 -218.5t-123.5 -178t-187.5 -118.5t-233.5 -44q-251 0 -414.5 156t-163.5 390zM205 1167l276 349h328l276 -349h-313l-133 138l-133 -138h-301zM430 532 q0 -90 61 -152.5t154 -62.5t154 62.5t61 152.5t-61 153t-154 63t-154 -63t-61 -153z" />
<glyph unicode="&#xf5;" horiz-adv-x="1290" d="M61 526q0 115 45.5 218.5t123.5 178t187.5 118.5t233.5 44q251 0 414.5 -156t163.5 -390q0 -115 -45.5 -218.5t-123.5 -178t-187.5 -118.5t-233.5 -44q-251 0 -414.5 156t-163.5 390zM268 1212q0 6 1 17t6 42.5t13.5 60.5t26.5 64t41.5 60t60.5 42.5t83 17.5 q53 0 97.5 -20.5t70 -45.5t56 -45.5t58.5 -20.5q25 0 41.5 26t20.5 52l4 27l172 -19q0 -6 -1 -17t-6.5 -42.5t-14 -60t-26.5 -63.5t-41.5 -60.5t-61 -42.5t-83.5 -17q-52 0 -96.5 20.5t-69.5 45t-56 45t-60 20.5q-24 0 -40 -26t-20 -52l-4 -26zM430 532q0 -90 61 -152.5 t154 -62.5t154 62.5t61 152.5t-61 153t-154 63t-154 -63t-61 -153z" />
<glyph unicode="&#xf6;" horiz-adv-x="1290" d="M61 526q0 115 45.5 218.5t123.5 178t187.5 118.5t233.5 44q251 0 414.5 -156t163.5 -390q0 -115 -45.5 -218.5t-123.5 -178t-187.5 -118.5t-233.5 -44q-251 0 -414.5 156t-163.5 390zM225 1350q0 79 53.5 132.5t133.5 53.5t131 -51t51 -131t-53.5 -133.5t-132.5 -53.5 q-80 0 -131.5 51.5t-51.5 131.5zM430 532q0 -90 61 -152.5t154 -62.5t154 62.5t61 152.5t-61 153t-154 63t-154 -63t-61 -153zM696 1350q0 79 53.5 132.5t133.5 53.5q79 0 130.5 -51t51.5 -131t-53.5 -133.5t-132.5 -53.5t-131 51.5t-52 131.5z" />
<glyph unicode="&#xf7;" d="M102 573v308h1065v-308h-1065zM432 279q0 85 59 143.5t144 58.5t144 -58.5t59 -143.5t-59 -144t-144 -59t-144 59t-59 144zM432 1176q0 85 59 143.5t144 58.5t144 -58.5t59 -143.5t-59 -144t-144 -59t-144 59t-59 144z" />
<glyph unicode="&#xf8;" horiz-adv-x="1290" d="M61 -61l160 200q-76 73 -118 173t-42 214q0 115 45.5 218.5t123.5 178t187.5 118.5t233.5 44q145 0 273 -59l80 100h225l-160 -200q160 -157 160 -387q0 -115 -45.5 -218.5t-123.5 -178t-187.5 -118.5t-233.5 -44q-151 0 -272 59l-80 -100h-226zM399 532q0 -73 33 -126 l287 362q-38 10 -74 10q-106 0 -176 -71t-70 -175zM571 297q38 -10 74 -10q106 0 176 70.5t70 174.5q0 64 -33 125z" />
<glyph unicode="&#xf9;" horiz-adv-x="1259" d="M92 393v672h369v-553q0 -97 43 -146t117 -49q75 0 121 49.5t46 145.5v553h369v-1065h-328l-16 143q-55 -78 -141 -120.5t-187 -42.5q-174 0 -283.5 111.5t-109.5 301.5zM270 1516h389l123 -349h-286z" />
<glyph unicode="&#xfa;" horiz-adv-x="1259" d="M92 393v672h369v-553q0 -97 43 -146t117 -49q75 0 121 49.5t46 145.5v553h369v-1065h-328l-16 143q-55 -78 -141 -120.5t-187 -42.5q-174 0 -283.5 111.5t-109.5 301.5zM475 1167l123 349h389l-225 -349h-287z" />
<glyph unicode="&#xfb;" horiz-adv-x="1259" d="M92 393v672h369v-553q0 -97 43 -146t117 -49t119 46.5t48 138.5v563h369v-1065h-328l-16 143q-55 -78 -141 -120.5t-187 -42.5q-174 0 -283.5 111.5t-109.5 301.5zM188 1167l277 349h328l276 -349h-313l-133 138l-134 -138h-301z" />
<glyph unicode="&#xfc;" horiz-adv-x="1259" d="M92 393v672h369v-553q0 -97 43 -146t117 -49q75 0 121 49.5t46 145.5v553h369v-1065h-328l-16 143q-55 -78 -141 -120.5t-187 -42.5q-174 0 -283.5 111.5t-109.5 301.5zM209 1350q0 80 53.5 133t132.5 53q80 0 131.5 -51.5t51.5 -130.5q0 -80 -54 -133.5t-133 -53.5 t-130.5 51.5t-51.5 131.5zM680 1350q0 80 53 133t133 53t131.5 -51.5t51.5 -130.5q0 -80 -53.5 -133.5t-133.5 -53.5q-79 0 -130.5 51.5t-51.5 131.5z" />
<glyph unicode="&#xfd;" horiz-adv-x="1136" d="M-20 -266l114 297q7 -6 20.5 -14.5t60.5 -22.5t101 -14q36 0 62.5 10t34.5 20l8 10l-401 1045h409l189 -616l190 616h389l-409 -1075q-66 -173 -175.5 -255.5t-275.5 -82.5q-84 0 -163.5 20.5t-116.5 41.5zM434 1167l123 349h389l-225 -349h-287z" />
<glyph unicode="&#xfe;" horiz-adv-x="1320" d="M102 -328v1762h369v-463q117 114 283 114q136 0 252 -71t185 -197t69 -278q0 -114 -42 -218t-112 -178.5t-165.5 -118.5t-199.5 -44q-159 0 -270 100v-408h-369zM461 532q0 -90 61 -152.5t154 -62.5t154 62.5t61 152.5t-61 153t-154 63t-154 -63t-61 -153z" />
<glyph unicode="&#xff;" horiz-adv-x="1136" d="M-20 -266l114 297q7 -6 20.5 -14.5t60.5 -22.5t101 -14q36 0 62.5 10t34.5 20l8 10l-401 1045h409l189 -616l190 616h389l-409 -1075q-66 -173 -175.5 -255.5t-275.5 -82.5q-84 0 -163.5 20.5t-116.5 41.5zM158 1350q0 80 53 133t133 53t131 -51t51 -131t-53.5 -133.5 t-132.5 -53.5t-130.5 51.5t-51.5 131.5zM629 1350q0 80 53.5 133t132.5 53t130.5 -51t51.5 -131t-53.5 -133.5t-132.5 -53.5t-130.5 51.5t-51.5 131.5z" />
<glyph unicode="&#x152;" horiz-adv-x="2170" d="M82 711q0 151 61 285t167 230t256 152t321 56h1181v-338h-696v-205h594v-318h-594v-235h717v-338h-1215q-171 0 -318.5 54t-251.5 148t-163 226t-59 283zM471 717q0 -166 112 -272.5t287 -106.5h113v758h-113q-175 0 -287 -106.5t-112 -272.5z" />
<glyph unicode="&#x153;" horiz-adv-x="2027" d="M61 526q0 115 45.5 218.5t123.5 178t187.5 118.5t233.5 44q118 0 220.5 -45.5t175.5 -126.5q74 81 172.5 126.5t210.5 45.5t212 -40t171 -107.5t112 -161t41 -196.5q0 -36 -5 -68t-10 -46l-5 -15h-709q19 -71 76 -112.5t141 -41.5q68 0 127 23t84 46l25 23l215 -215 q-6 -8 -17.5 -21t-54.5 -46.5t-93.5 -59t-134.5 -46.5t-178 -21q-116 0 -216.5 45.5t-174.5 126.5q-75 -81 -178 -126.5t-219 -45.5q-251 0 -414.5 156t-163.5 390zM430 532q0 -90 61 -152.5t154 -62.5t154 62.5t61 152.5t-61 153t-154 63t-154 -63t-61 -153zM1233 666h381 q-12 63 -67 108t-124 45q-71 0 -123 -43t-67 -110z" />
<glyph unicode="&#x178;" horiz-adv-x="1454" d="M0 1434h451l286 -549l287 549h430l-532 -922v-512h-390v512zM317 1718q0 80 53.5 133.5t133.5 53.5q79 0 130.5 -51.5t51.5 -131.5t-53 -133t-133 -53t-131.5 51.5t-51.5 130.5zM788 1718q0 80 54 133.5t133 53.5t130.5 -51.5t51.5 -131.5t-53.5 -133t-132.5 -53 q-80 0 -131.5 51.5t-51.5 130.5z" />
<glyph unicode="&#x2c6;" horiz-adv-x="1085" d="M102 1167l277 349h328l276 -349h-313l-133 138l-134 -138h-301z" />
<glyph unicode="&#x2dc;" horiz-adv-x="956" d="M102 1212q0 6 1 17t6 42.5t13.5 60.5t26.5 64t41.5 60t60.5 42.5t83 17.5q53 0 97.5 -20.5t70 -45.5t56 -45.5t58.5 -20.5q25 0 41.5 26t20.5 52l4 27l172 -19q0 -6 -1 -17t-6 -42.5t-13.5 -60t-26.5 -63.5t-41.5 -60.5t-61 -42.5t-83.5 -17q-52 0 -96.5 20.5t-70 45 t-56.5 45t-60 20.5q-24 0 -40 -26t-20 -52l-4 -26z" />
<glyph unicode="&#x2000;" horiz-adv-x="973" />
<glyph unicode="&#x2001;" horiz-adv-x="1946" />
<glyph unicode="&#x2002;" horiz-adv-x="973" />
<glyph unicode="&#x2003;" horiz-adv-x="1946" />
<glyph unicode="&#x2004;" horiz-adv-x="648" />
<glyph unicode="&#x2005;" horiz-adv-x="486" />
<glyph unicode="&#x2006;" horiz-adv-x="324" />
<glyph unicode="&#x2007;" horiz-adv-x="324" />
<glyph unicode="&#x2008;" horiz-adv-x="243" />
<glyph unicode="&#x2009;" horiz-adv-x="389" />
<glyph unicode="&#x200a;" horiz-adv-x="108" />
<glyph unicode="&#x2010;" horiz-adv-x="860" d="M102 563v328h656v-328h-656z" />
<glyph unicode="&#x2011;" horiz-adv-x="860" d="M102 563v328h656v-328h-656z" />
<glyph unicode="&#x2012;" horiz-adv-x="860" d="M102 563v328h656v-328h-656z" />
<glyph unicode="&#x2013;" horiz-adv-x="1167" d="M102 563v328h963v-328h-963z" />
<glyph unicode="&#x2014;" horiz-adv-x="1843" d="M102 563v328h1639v-328h-1639z" />
<glyph unicode="&#x2018;" horiz-adv-x="614" d="M82 758l164 676h286l-61 -676h-389z" />
<glyph unicode="&#x2019;" horiz-adv-x="614" d="M82 758l61 676h389l-163 -676h-287z" />
<glyph unicode="&#x201a;" horiz-adv-x="614" d="M82 -266l61 676h389l-163 -676h-287z" />
<glyph unicode="&#x201c;" horiz-adv-x="1126" d="M82 758l164 676h286l-61 -676h-389zM594 758l164 676h286l-61 -676h-389z" />
<glyph unicode="&#x201d;" horiz-adv-x="1126" d="M82 758l61 676h389l-163 -676h-287zM594 758l61 676h389l-163 -676h-287z" />
<glyph unicode="&#x201e;" horiz-adv-x="1126" d="M82 -266l61 676h389l-163 -676h-287zM594 -266l61 676h389l-163 -676h-287z" />
<glyph unicode="&#x2022;" horiz-adv-x="901" d="M102 715q0 149 101 249.5t250 100.5t247.5 -98.5t98.5 -247.5t-100.5 -249.5t-249.5 -100.5t-248 98.5t-99 247.5z" />
<glyph unicode="&#x202f;" horiz-adv-x="389" />
<glyph unicode="&#x2039;" horiz-adv-x="911" d="M102 655v123l492 471l194 -194l-305 -334l305 -332l-194 -205z" />
<glyph unicode="&#x203a;" horiz-adv-x="911" d="M123 379l305 332l-305 333l194 205l492 -471v-123l-492 -471z" />
<glyph unicode="&#x205f;" horiz-adv-x="486" />
<glyph unicode="&#x20ac;" d="M61 481v185h164v102h-164v184h164q6 231 161 366.5t388 135.5q98 0 181 -27.5t131.5 -66.5t82.5 -78t47 -66l13 -28l-297 -164l-5.5 11t-18.5 24.5t-33 31t-49.5 24.5t-67.5 11q-76 0 -125 -49t-49 -125h481v-184h-481v-102h440v-185h-440q0 -77 49 -125.5t125 -48.5 q34 0 65 10.5t50 25.5t33 30.5t20 26.5l6 10l297 -164q-2 -6 -7 -15.5t-24 -37t-42.5 -52.5t-63 -56t-84.5 -53t-110 -37t-136 -15q-155 0 -275 57t-190.5 171.5t-71.5 272.5h-164z" />
<glyph unicode="&#x2122;" horiz-adv-x="1624" d="M102 1251v183h564v-183h-179v-463h-204v463h-181zM760 788v646h207l176 -316l178 316h201v-646h-199v332l-133 -235h-100l-136 239v-336h-194z" />
<glyph unicode="&#x25fc;" horiz-adv-x="1064" d="M0 0v1065h1065v-1065h-1065z" />
<glyph unicode="&#xfb01;" horiz-adv-x="1509" d="M41 707v297h184v71q0 177 101 278t278 101q84 0 155.5 -11t101.5 -21l30 -11l-41 -276q-55 22 -133 22q-62 0 -92.5 -29.5t-30.5 -83.5v-40h276v-297h-276v-707h-369v707h-184zM985 1352q0 89 63.5 146.5t161.5 57.5t162 -57.5t64 -146.5t-64 -147t-162 -58t-161.5 58 t-63.5 147zM1024 0v1065h373v-1065h-373z" />
<glyph unicode="&#xfb02;" horiz-adv-x="1509" d="M41 707v297h184v71q0 177 101 278t278 101q84 0 155.5 -11t101.5 -21l30 -11l-41 -276q-55 22 -133 22q-62 0 -92.5 -29.5t-30.5 -83.5v-40h276v-297h-276v-707h-369v707h-184zM1024 0v1434h373v-1434h-373z" />
</font>
</defs>
</svg>
